<?xml version="1.0" encoding="UTF-8"?>
<svg width="172px" height="84px" viewBox="0 0 172 84" version="1.1" xmlns="http://www.w3.org/2000/svg" xmlns:xlink="http://www.w3.org/1999/xlink">
    <!-- Generator: Sketch 58 (84663) - https://sketch.com -->
    <title>UN-text-EN</title>
    <desc>Created with Sketch.</desc>
    <g id="UN-text-EN" stroke="none" stroke-width="1" fill="none" fill-rule="evenodd">
        <path d="M40.3162824,11.5691864 L40.5463753,14.7689614 C42.4440803,12.3420285 45.3898043,10.9702396 48.4695752,11.0792209 C51.390755,11.0792209 53.5716358,11.9291611 54.9922095,13.6490402 C56.4127832,15.3689192 57.1430781,17.9287392 57.1930983,21.3484987 L57.1930983,39.147247 L49.8301247,39.147247 L49.8301247,21.4984882 C49.9479475,20.2786725 49.5895049,19.0605455 48.8297207,18.0987272 C47.8896128,17.3007724 46.6657875,16.9182828 45.438351,17.0388018 C43.505483,16.9591415 41.6962033,17.9875359 40.7764682,19.6886154 L40.7764682,39.1172491 L33.4134946,39.1172491 L33.4134946,11.5691864 L40.3162824,11.5691864 Z M64.0058498,4.3996906 C63.9735072,3.37673566 64.3771319,2.38814239 65.1162983,1.67988187 C66.8666045,0.264635068 69.3684162,0.264635068 71.1187224,1.67988187 C71.8721832,2.38059222 72.2876516,3.37141527 72.259183,4.3996906 C72.2976428,5.43651096 71.8854111,6.43925403 71.1287265,7.14949722 C69.3867472,8.58807393 66.8682816,8.58807393 65.1263023,7.14949722 C64.3744069,6.43670776 63.9661345,5.43472864 64.0058498,4.3996906 L64.0058498,4.3996906 Z M71.8290093,39.0972506 L64.4460276,39.0972506 L64.4460276,11.5691864 L71.8290093,11.5691864 L71.8290093,39.0972506 Z M87.0351505,4.79966247 L87.0351505,11.5691864 L91.7370495,11.5691864 L91.7370495,16.9688067 L87.0351505,16.9688067 L87.0351505,30.7178398 C86.9641706,31.4964696 87.1695787,32.2752343 87.6153849,32.9176851 C88.2425219,33.4311505 89.0508039,33.6691921 89.8562899,33.5776387 C90.5839482,33.585457 91.3107421,33.5251985 92.0271666,33.3976514 L92.0271666,38.977259 C90.5808603,39.4171337 89.0771418,39.6395516 87.5653647,39.6372308 C82.4032799,39.6372308 79.7688826,37.0307292 79.6621728,31.8177625 L79.6621728,16.9688067 L75.6605567,16.9688067 L75.6605567,11.5691864 L79.6621728,11.5691864 L79.6621728,4.79966247 L87.0351505,4.79966247 Z M51.9909974,83.4641305 C51.6153077,82.6850894 51.3654455,81.8514854 51.2506984,80.9943042 C49.4822551,82.990051 46.9133678,84.0904807 44.2478702,83.9940933 C41.7947558,84.0792719 39.3990707,83.2406444 37.5351592,81.6442585 C35.7970913,80.1790617 34.8152365,78.0067731 34.8640804,75.7346741 C34.7337387,73.0878578 35.9586253,70.5563702 38.1153935,69.0151466 C40.2862703,67.4552563 43.4175349,66.6653119 47.5191914,66.6453133 L50.900557,66.6453133 L50.900557,65.0454258 C50.9544353,63.9403508 50.5981854,62.854304 49.900153,61.9956403 C49.0967929,61.164718 47.9602931,60.7419494 46.8089045,60.8457211 C45.7604451,60.7870802 44.7252161,61.1024627 43.8877248,61.7356585 C43.1924798,62.3532069 42.8229808,63.2580502 42.8873207,64.1854863 L35.5243471,64.1854863 C35.5243373,62.5891336 36.0401333,61.0354651 36.994941,59.7557978 C38.0700486,58.3272387 39.5163424,57.2205532 41.1766298,56.5560228 C43.1035532,55.7581344 45.1736148,55.3633757 47.2590863,55.3961044 C50.171123,55.2470829 53.0387508,56.1563328 55.3323469,57.9559244 C57.3752499,59.7752756 58.4795929,62.4244422 58.3335589,65.1554181 L58.3335589,77.0945785 C58.2315734,79.1289166 58.6049109,81.1590467 59.4239993,83.0241615 L59.4239993,83.4641305 L51.9909974,83.4641305 Z M45.8885328,78.394487 C46.9340738,78.4041763 47.9655517,78.1533023 48.8897449,77.6645384 C49.7451434,77.2174987 50.4433013,76.5196719 50.890553,75.664679 L50.890553,70.9350116 L48.1394419,70.9350116 C44.4579551,70.9350116 42.4971632,72.2082554 42.2570662,74.754743 L42.2570662,75.1847128 C42.2473213,76.0501471 42.6120176,76.8776152 43.2574702,77.4545531 C43.9828048,78.0912127 44.92378,78.4273713 45.8885328,78.394487 L45.8885328,78.394487 Z M71.5488962,49.1365446 L71.5488962,55.9060685 L76.2507951,55.9060685 L76.2507951,61.3056888 L71.5488962,61.3056888 L71.5488962,75.0547219 C71.4788536,75.8316009 71.6881193,76.6079987 72.1391345,77.2445679 C72.7623353,77.7654282 73.5738494,78.0044217 74.3800396,77.9045215 C75.104044,77.914902 75.8274466,77.8579945 76.5409123,77.7345335 L76.5409123,83.3041418 C75.0984894,83.7471485 73.5980953,83.9729434 72.0891143,83.9740947 C66.9203602,83.9740947 64.2859629,81.3676113 64.1859225,76.1546446 L64.1859225,61.2956895 L60.1843064,61.2956895 L60.1843064,55.8960692 L64.1859225,55.8960692 L64.1859225,49.1265453 L71.5488962,49.1365446 Z M79.6321607,48.7765699 C79.5998182,47.7536149 80.0034428,46.7650217 80.7426092,46.0567611 C82.4929154,44.6415143 84.9947271,44.6415143 86.7450334,46.0567611 C88.2440357,47.572146 88.2440357,50.0109916 86.7450334,51.5263765 C85.0030541,52.9649532 82.4845885,52.9649532 80.7426092,51.5263765 C79.994395,50.8118082 79.5898636,49.810066 79.6321607,48.7765699 L79.6321607,48.7765699 Z M87.4553202,83.4741298 L80.0723385,83.4741298 L80.0723385,55.8960692 L87.4553202,55.8960692 L87.4553202,83.4741298 Z M91.6970333,69.3951199 C91.6475176,66.8720773 92.1887999,64.372402 93.2776717,62.0956332 C94.2573857,60.0126364 95.8394496,58.2711015 97.819506,57.0959848 C99.9206595,55.9158222 102.303068,55.3282787 104.71229,55.3961044 C108.086501,55.2656929 111.37122,56.4982296 113.82597,58.8158639 C116.266325,61.2906356 117.67213,64.60147 117.757558,68.0752127 L117.807578,69.9750791 C117.807578,74.2014486 116.627102,77.5912102 114.266148,80.144364 C108.957358,85.2439464 100.567262,85.2439464 95.2584717,80.144364 C92.8841794,77.5912102 91.700368,74.1247873 91.7070374,69.7450953 L91.6970333,69.3951199 Z M99.060007,69.9250826 C98.9245329,72.0282291 99.437822,74.1222935 100.530601,75.9246607 C101.536368,77.2283431 103.090252,77.9919739 104.7373,77.9919739 C106.384348,77.9919739 107.938232,77.2283431 108.943999,75.9246607 C109.944403,74.551424 110.444605,72.361578 110.444605,69.3551227 C110.576996,67.2482912 110.052735,65.1522415 108.943999,63.3555446 C107.991082,61.9707683 106.392253,61.173622 104.71229,61.245693 C103.049226,61.1773422 101.468481,61.9711197 100.530601,63.3455453 C99.5502049,64.8454399 99.060007,67.0152873 99.060007,69.9450812 L99.060007,69.9250826 Z M128.071724,55.8960692 L128.301817,59.0758456 C130.199522,56.6489127 133.145246,55.2771238 136.225017,55.3861051 C139.146196,55.3861051 141.327077,56.2460446 142.747651,57.9559244 C144.168225,59.6658041 144.908524,62.2356234 144.94854,65.6553829 L144.94854,83.4541312 L137.585566,83.4541312 L137.585566,65.8353702 C137.700255,64.6158548 137.342149,63.3988713 136.585162,62.4356093 C135.638849,61.6432392 134.411651,61.2680391 133.183788,61.3956825 C131.250334,61.3136028 129.43986,62.3426761 128.521906,64.0454961 L128.521906,83.4641305 L121.158932,83.4641305 L121.158932,55.8960692 L128.071724,55.8960692 Z M164.766544,75.8446664 C164.76766,74.9411339 164.250379,74.1169866 163.436006,73.7248154 C162.08462,73.045693 160.637336,72.5769818 159.144273,72.3349132 C152.581623,70.9550102 149.303632,68.1685395 149.310301,63.975501 C149.281813,61.5750446 150.395717,59.3037587 152.311513,57.8559314 C154.621768,56.1125001 157.474141,55.2412569 160.364766,55.3961044 C163.361407,55.2476951 166.319976,56.118279 168.758156,57.8659307 C170.784776,59.3700323 171.955768,61.7630903 171.899424,64.2854792 L164.536451,64.2854792 C164.568248,63.316374 164.207561,62.3754274 163.536047,61.6756628 C162.650203,60.9267731 161.499791,60.5663133 160.344758,60.6757331 C159.315676,60.6105696 158.296267,60.9077564 157.463594,61.515674 C156.815428,62.0347116 156.445691,62.8255746 156.46319,63.6555235 C156.45156,64.485007 156.897548,65.2535862 157.623659,65.6553829 C158.837738,66.3142927 160.158438,66.7543173 161.525235,66.9552915 C163.101167,67.2528814 164.652747,67.6673311 166.167109,68.1952043 C170.055346,69.6151044 171.999465,72.0815977 171.999465,75.5946839 C172.029276,78.0445957 170.812226,80.3419577 168.76816,81.694255 C166.279343,83.3238189 163.336001,84.1188448 160.364766,83.9640954 C158.248334,84.0006616 156.14918,83.5776183 154.212281,82.7241826 C152.525501,82.0092752 151.060915,80.8561151 149.970568,79.3844174 C148.978957,78.0402953 148.442703,76.4147787 148.43995,74.7447437 L155.442778,74.7447437 C155.445938,75.9128587 155.979549,77.0163588 156.893364,77.7445328 C157.954521,78.4735906 159.229727,78.8256903 160.514826,78.7444624 C161.636727,78.824903 162.75496,78.5446012 163.706115,77.9445187 C164.393373,77.4653514 164.79221,76.6718161 164.766544,75.8346671 L164.766544,75.8446664 Z M119.908427,25.1482315 C119.908427,20.8485339 120.875484,17.4287744 122.809599,14.888953 C124.649855,12.3822152 127.61437,10.9512318 130.722794,11.0692216 C133.277644,11.0102146 135.72115,12.1136846 137.365477,14.0690106 L137.365477,0 L144.768467,0 L144.768467,39.1172491 L138.11578,39.1172491 L137.765639,36.1874552 C136.08936,38.3983583 133.457705,39.6764088 130.682778,39.6272133 C127.607062,39.7112311 124.686323,38.2795891 122.869623,35.7974826 C120.908831,33.2376626 119.928435,29.6845792 119.928435,25.1382322 L119.908427,25.1482315 Z M127.271401,25.6981928 C127.146584,27.7661999 127.615133,29.8268347 128.621946,31.6377751 C129.461532,32.9813592 130.960243,33.7685732 132.54353,33.6976303 C134.59204,33.8372968 136.511325,32.6886645 137.355473,30.8178328 L137.355473,19.9185993 C136.533861,18.0516187 134.629392,16.8998815 132.59355,17.0388018 C129.04545,17.0388018 127.271401,19.9219324 127.271401,25.6881935 L127.271401,25.6981928 Z M28.4114744,2.04985585 L28.4114744,26.4681387 C28.4114744,30.5345194 27.144296,33.7442937 24.6099391,36.0974615 C22.0755822,38.4572956 18.6075149,39.6372126 14.2057372,39.6372126 C9.87065309,39.6372126 6.43593259,38.4906265 3.90157571,36.1974545 C1.35388012,33.9042824 0.0533548816,30.7545039 0,26.748119 L0,2.04985585 L7.64308678,2.04985585 L7.64308678,26.5181352 C7.64308678,28.9446312 8.22332112,30.7111736 9.38378979,31.8177625 C10.7126733,32.9868154 12.448226,33.5866081 14.2157413,33.487645 C18.5174786,33.487645 20.701694,31.2311371 20.7683876,26.7181211 L20.7683876,2.04985585 L28.4114744,2.04985585 Z M30.5123229,83.4641305 L22.8692361,83.4641305 L7.99322819,59.0658463 L7.99322819,83.4641305 L0.300121209,83.4641305 L0.300121209,46.3967372 L7.94320799,46.3967372 L22.849228,70.8350187 L22.849228,46.3967372 L30.4723067,46.3967372 L30.5123229,83.4641305 Z M106.64307,39.6372126 C103.065448,39.7989635 99.5926887,38.4061429 97.1192231,35.8174812 C94.7088472,33.1782374 93.4301542,29.6994001 93.5577848,26.1281626 L93.5577848,25.1282329 C93.4081868,21.4629976 94.6075947,17.8700372 96.9291464,15.0289431 C99.1621555,12.3973779 102.483325,10.9404447 105.932783,11.0792209 C109.640947,11.0792209 112.525445,12.1991421 114.586277,14.4389846 C116.653779,16.6788271 117.680861,19.7119471 117.66765,23.5383447 L117.66765,27.5380634 L101.260896,27.5380634 L101.210876,27.6880529 C101.277631,29.3416304 101.921853,30.9195798 103.031611,32.1477393 C104.170209,33.3432307 105.77421,33.9823358 107.423385,33.8976162 C108.803785,33.9326666 110.181985,33.7676305 111.515037,33.4076507 C112.756392,33.0085837 113.953216,32.4824989 115.08648,31.8377611 L117.087288,36.4374376 C115.769742,37.4648592 114.274226,38.2410739 112.675506,38.7272766 C110.725248,39.3631802 108.684372,39.6772721 106.633065,39.6572112 L106.64307,39.6372126 Z M105.982803,16.7888194 C104.695854,16.7516174 103.474194,17.3546662 102.721486,18.3987061 C101.860148,19.6181714 101.348213,21.049527 101.240888,22.538415 L101.32092,22.6684059 L110.424597,22.6684059 L110.424597,22.0084523 C110.511038,20.652399 110.129688,19.3077184 109.34416,18.1987202 C108.515364,17.2163185 107.264796,16.6917753 105.982803,16.7888194 Z" id="Shape" fill="#000000" fill-rule="nonzero"></path>
    </g>
</svg>