<svg version="1.1" id="Layer_1" xmlns="http://www.w3.org/2000/svg" xmlns:xlink="http://www.w3.org/1999/xlink" x="0px" y="0px" viewBox="0 0 122.88 104.57" style="enable-background:new 0 0 122.88 104.57" xml:space="preserve"><style type="text/css">.st0{fill-rule:evenodd;clip-rule:evenodd;}</style><g><path class="st0" fill="green" d="M83.91,29.65c1.96,0.37,3.11,1.8,3.68,3.97c23.12,0.7,21.37-18.82,17.57-33.62 c16.21,13.08,19.9,35.7-0.68,46.93c8.25,0.24,12.89,4.63,18.41,5.85c-4.54,0.56-7.69,13.24-24.45,5.84 c-0.35-0.1-0.69-0.16-1.02-0.19c-0.99-0.08-1.88,0.17-2.66,0.74c-0.54,2.85-5.2,7.9-9.35,13.49c-1.77,2.38-1.73,3.07-1.82,6.15 c-0.07,2.46,0,4.99-0.14,7.47c1.6,3.41,1.67,6.5,0.28,9.28c-1.8,4.76-5.35,6.48-10.02,6.25c-2.11,3.65-7.16,2.89-12.27,2.05 c-5.11,0.85-10.15,1.6-12.27-2.05c-4.67,0.23-8.22-1.49-10.02-6.25c-1.4-2.78-1.32-5.88,0.28-9.28c-0.14-2.49-0.07-5.01-0.14-7.47 c-0.09-3.08-0.05-3.77-1.82-6.15c-4.15-5.6-8.81-10.65-9.35-13.49c-0.78-0.57-1.66-0.82-2.66-0.74c-0.33,0.03-0.67,0.09-1.02,0.19 C7.69,66.02,4.54,53.34,0,52.78c5.52-1.22,10.15-5.61,18.41-5.85C-1.97,35.81,1.7,12.92,17.73,0 c-3.81,14.79-5.55,34.32,17.57,33.62c0.57-2.17,1.72-3.59,3.68-3.97c10.89-0.45,17.14-2.61,23.71-2.58 C68.42,27.1,75.18,29.31,83.91,29.65L83.91,29.65z M80.2,51.78l3.41-2.97c-0.21,5,0.31,13.27-6.82,11.91 c-1.54-0.29-3-1.14-4.39-2.32l1.56-1.49c0.7,0.81,1.45,1.33,2.15,1.63c0.96,0.4,1.65-0.31,1.59-1.55c-0.09-1.65,0.67-1.8,1.19-0.53 C80.07,59.26,81.61,54.66,80.2,51.78L80.2,51.78z M42.67,51.78l-3.41-2.97c0.21,5-0.31,13.27,6.82,11.91 c1.54-0.29,3-1.14,4.39-2.32l-1.56-1.49c-0.7,0.81-1.45,1.33-2.15,1.63c-0.96,0.4-1.61-0.19-1.55-1.43 c0.09-1.65-0.67-1.8-1.19-0.53C42.84,59.38,41.26,54.66,42.67,51.78L42.67,51.78z M55.39,90.78c0.49-3.26-2.76-5.17-5.32-4.36 c-0.45,0.14-0.87,0.37-1.25,0.68c-1.02,0.85-0.37,2.37,1.16,2.58c1.46,0.21,2.23-1.02,3.86-0.24 C54.45,89.75,55.01,90.27,55.39,90.78L55.39,90.78z M67.43,90.78c-0.49-3.26,2.76-5.17,5.32-4.36c0.45,0.14,0.87,0.37,1.25,0.68 c1.02,0.85,0.37,2.37-1.16,2.58c-1.46,0.21-2.23-1.02-3.86-0.24C68.36,89.75,67.81,90.27,67.43,90.78L67.43,90.78z M64.53,79.68 c-2.23,0.79-4.36,0.77-6.41,0c-3.04-1.3-6.14-1.8-9.14-0.17c-6.51,3.53-7.2,12.73-2.17,17.44c2.27,2.12,6.22,2.51,9.73,1.69 c5.98-1.39,2.76-1.83,8.85-0.14c3.67,1.02,8.04,0.72,10.47-1.55c5.03-4.71,4.34-13.92-2.17-17.44 C70.67,77.88,67.57,78.38,64.53,79.68L64.53,79.68z"/></g></svg>